name rise30.3154peak39.0474fall46.5389.mot
datacolumns 19
datarows 23
range 3.66665400000000 3.70332200000000
endheader
time	ground_force1_vx	ground_force1_vy	ground_force1_vz	ground_force1_px	ground_force1_py	ground_force1_pz	ground_force2_vx	ground_force2_vy	ground_force2_vz	ground_force2_px	ground_force2_py	ground_force2_pz	ground_torque1_x	ground_torque1_y	ground_torque1_z	ground_torque2_x	ground_torque2_y	ground_torque2_z	
3.66665400000000	-3.31351000000000	41.35850900000000	-6.98478000000000	0.30606400000000	0.00000000000000	0.10724200000000	-56.10496700000000	789.85683900000004	-57.14722400000000	0.11476600000000	0.00000000000000	-0.09268000000000	0.00000000000000	-4.93785100000000	0.00000000000000	0.00000000000000	-21.70295000000000	0.00000000000000	
3.66831800000000	-3.62671600000000	48.58392700000000	-7.87097100000000	0.31178000000000	0.00000000000000	0.10797800000000	-56.54233600000000	787.10563999999999	-56.76464700000000	0.11416400000000	0.00000000000000	-0.09255000000000	0.00000000000000	-5.62053700000000	0.00000000000000	0.00000000000000	-21.62085000000000	0.00000000000000	
3.66999100000000	-3.86923100000000	55.92975800000000	-8.67994900000000	0.31691000000000	0.00000000000000	0.10864300000000	-56.97779800000000	784.20731899999998	-56.35692900000000	0.11357400000000	0.00000000000000	-0.09241600000000	0.00000000000000	-6.25864700000000	0.00000000000000	0.00000000000000	-21.53646700000000	0.00000000000000	
3.67166000000000	-4.02944700000000	63.30404100000000	-9.39229600000000	0.32154400000000	0.00000000000000	0.10925000000000	-57.41143800000000	781.16089599999998	-55.92415200000000	0.11299500000000	0.00000000000000	-0.09227600000000	0.00000000000000	-6.83752500000000	0.00000000000000	0.00000000000000	-21.44990500000000	0.00000000000000	
3.67332600000000	-4.09926500000000	70.63666600000001	-9.99460600000000	0.32575600000000	0.00000000000000	0.10980700000000	-57.84329700000000	777.96540200000004	-55.46643700000000	0.11242600000000	0.00000000000000	-0.09213200000000	0.00000000000000	-7.34683500000000	0.00000000000000	0.00000000000000	-21.36126200000000	0.00000000000000	
3.67499200000000	-4.07411900000000	77.88163800000000	-10.47961000000000	0.32960400000000	0.00000000000000	0.11032200000000	-58.27336400000000	774.61988799999995	-54.98394400000000	0.11186900000000	0.00000000000000	-0.09198400000000	0.00000000000000	-7.78074000000000	0.00000000000000	0.00000000000000	-21.27062300000000	0.00000000000000	
3.67665300000000	-3.95272300000000	85.01697600000000	-10.84579100000000	0.33313600000000	0.00000000000000	0.11080100000000	-58.70157600000000	771.12341400000003	-54.47687300000000	0.11132300000000	0.00000000000000	-0.09183000000000	0.00000000000000	-8.13768300000000	0.00000000000000	0.00000000000000	-21.17806500000000	0.00000000000000	
3.67832700000000	-3.73659300000000	92.04264900000000	-11.09659200000000	0.33639200000000	0.00000000000000	0.11124900000000	-59.12781100000000	767.47505400000000	-53.94546000000000	0.11078700000000	0.00000000000000	-0.09167200000000	0.00000000000000	-8.41985400000000	0.00000000000000	0.00000000000000	-21.08365200000000	0.00000000000000	
3.67999000000000	-3.42944300000000	98.97706599999999	-11.23935800000000	0.33940500000000	0.00000000000000	0.11167000000000	-59.55188900000000	763.67389300000002	-53.38998500000000	0.11026200000000	0.00000000000000	-0.09150900000000	0.00000000000000	-8.63243200000000	0.00000000000000	0.00000000000000	-20.98743700000000	0.00000000000000	
3.68165300000000	-3.03650000000000	105.85265400000000	-11.28414400000000	0.34220200000000	0.00000000000000	0.11206600000000	-59.97356700000000	759.71902499999999	-52.81076400000000	0.10974800000000	0.00000000000000	-0.09134100000000	0.00000000000000	-8.78272100000000	0.00000000000000	0.00000000000000	-20.88946200000000	0.00000000000000	
3.68332400000000	-2.56383600000000	112.71105799999999	-11.24251600000000	0.34480600000000	0.00000000000000	0.11244200000000	-60.39253700000000	755.60955999999999	-52.20815300000000	0.10924500000000	0.00000000000000	-0.09116900000000	0.00000000000000	-8.87925400000000	0.00000000000000	0.00000000000000	-20.78975300000000	0.00000000000000	
3.68498900000000	-2.01775100000000	119.59841100000000	-11.12643100000000	0.34723700000000	0.00000000000000	0.11280000000000	-60.80842200000000	751.34461799999997	-51.58254900000000	0.10875200000000	0.00000000000000	-0.09099200000000	0.00000000000000	-8.93095400000000	0.00000000000000	0.00000000000000	-20.68832500000000	0.00000000000000	
3.68665600000000	-1.40425800000000	126.56104600000000	-10.94729200000000	0.34951200000000	0.00000000000000	0.11314000000000	-61.22077600000000	746.92333799999994	-50.93438700000000	0.10827000000000	0.00000000000000	-0.09081000000000	0.00000000000000	-8.94640500000000	0.00000000000000	0.00000000000000	-20.58518000000000	0.00000000000000	
3.68832000000000	-0.72868200000000	133.64191299999999	-10.71520200000000	0.35164600000000	0.00000000000000	0.11346600000000	-61.62908300000000	742.34487799999999	-50.26414300000000	0.10779900000000	0.00000000000000	-0.09062400000000	0.00000000000000	-8.93327800000000	0.00000000000000	0.00000000000000	-20.48030500000000	0.00000000000000	
3.68998800000000	0.00460200000000	140.87783899999999	-10.43845700000000	0.35365000000000	0.00000000000000	0.11377800000000	-62.03275200000000	737.60842000000002	-49.57233000000000	0.10733700000000	0.00000000000000	-0.09043300000000	0.00000000000000	-8.89792400000000	0.00000000000000	0.00000000000000	-20.37367300000000	0.00000000000000	
3.69165300000000	0.79230200000000	148.29771500000001	-10.12325900000000	0.35553600000000	0.00000000000000	0.11407900000000	-62.43112000000000	732.71317899999997	-48.85950200000000	0.10688700000000	0.00000000000000	-0.09023800000000	0.00000000000000	-8.84514200000000	0.00000000000000	0.00000000000000	-20.26524500000000	0.00000000000000	
3.69332000000000	1.63223500000000	155.92155800000000	-9.77365200000000	0.35731300000000	0.00000000000000	0.11436800000000	-62.82345200000000	727.65840600000001	-48.12624900000000	0.10644600000000	0.00000000000000	-0.09003800000000	0.00000000000000	-8.77810000000000	0.00000000000000	0.00000000000000	-20.15496500000000	0.00000000000000	
3.69499300000000	2.52324300000000	163.76037500000001	-9.39162100000000	0.35899000000000	0.00000000000000	0.11464700000000	-63.20893700000000	722.44339700000000	-47.37319800000000	0.10601600000000	0.00000000000000	-0.08983400000000	0.00000000000000	-8.69840200000000	0.00000000000000	0.00000000000000	-20.04276700000000	0.00000000000000	
3.69665700000000	3.46504600000000	171.81668700000000	-8.97733800000000	0.36057300000000	0.00000000000000	0.11491600000000	-63.58669300000000	717.06750699999998	-46.60101700000000	0.10559500000000	0.00000000000000	-0.08962500000000	0.00000000000000	-8.60625700000000	0.00000000000000	0.00000000000000	-19.92856900000000	0.00000000000000	
3.69832200000000	4.45803700000000	180.08555300000000	-8.52950200000000	0.36206900000000	0.00000000000000	0.11517700000000	-63.95576300000000	711.53015300000004	-45.81040500000000	0.10518500000000	0.00000000000000	-0.08941200000000	0.00000000000000	-8.50072200000000	0.00000000000000	0.00000000000000	-19.81227600000000	0.00000000000000	
3.69998500000000	5.50306200000000	188.55592100000001	-8.04572900000000	0.36348300000000	0.00000000000000	0.11543000000000	-64.31512200000000	705.83083099999999	-45.00210000000000	0.10478500000000	0.00000000000000	-0.08919500000000	0.00000000000000	-8.37999000000000	0.00000000000000	0.00000000000000	-19.69378000000000	0.00000000000000	
3.70165900000000	6.60118400000000	197.21215699999999	-7.52295100000000	0.36481900000000	0.00000000000000	0.11567600000000	-64.66367200000001	699.96912599999996	-44.17687000000000	0.10439400000000	0.00000000000000	-0.08897400000000	0.00000000000000	-8.24169100000000	0.00000000000000	0.00000000000000	-19.57296100000000	0.00000000000000	
3.70332200000000	7.75347000000000	206.03558799999999	-6.95780900000000	0.36608300000000	0.00000000000000	0.11591400000000	-65.00024999999999	693.94472499999995	-43.33552000000000	0.10401400000000	0.00000000000000	-0.08874800000000	0.00000000000000	-8.08318600000000	0.00000000000000	0.00000000000000	-19.44968600000000	0.00000000000000	
